<svg width="1200" height="630" viewBox="0 0 1200 630" xmlns="http://www.w3.org/2000/svg">
<rect width="1200" height="630" fill="#0a0a0a"/>
<defs>
  <radialGradient id="radial" cx="70%" cy="20%" r="60%">
    <stop offset="0%" stop-color="#d4880a" stop-opacity="0.18"/>
    <stop offset="100%" stop-color="#0a0a0a" stop-opacity="0"/>
  </radialGradient>
</defs>
<rect x="0" y="0" width="1200" height="630" fill="url(#radial)"/>
<line x1="80" y1="0" x2="80" y2="630" stroke="#2a2a2a" stroke-width="1"/>
<line x1="1120" y1="0" x2="1120" y2="630" stroke="#2a2a2a" stroke-width="1"/>
<line x1="0" y1="80" x2="1200" y2="80" stroke="#2a2a2a" stroke-width="1"/>
<line x1="0" y1="550" x2="1200" y2="550" stroke="#2a2a2a" stroke-width="1"/>
<circle cx="980" cy="350" r="260" fill="none" stroke="#d4880a" stroke-width="0.5" stroke-opacity="0.15"/>
<circle cx="980" cy="350" r="200" fill="none" stroke="#d4880a" stroke-width="0.5" stroke-opacity="0.1"/>
<circle cx="980" cy="350" r="140" fill="none" stroke="#d4880a" stroke-width="0.5" stroke-opacity="0.08"/>
<g transform="translate(820, 180)">
  <line x1="80" y1="0" x2="60" y2="280" stroke="#d4880a" stroke-width="2" stroke-opacity="0.6"/>
  <ellipse cx="70" cy="140" rx="55" ry="130" fill="#d4880a" fill-opacity="0.08" stroke="#d4880a" stroke-width="1" stroke-opacity="0.3"/>
  <ellipse cx="70" cy="50" rx="55" ry="18" fill="none" stroke="#d4880a" stroke-width="1.5" stroke-opacity="0.5"/>
  <rect x="20" y="255" width="100" height="30" rx="4" fill="#d4880a" fill-opacity="0.15" stroke="#d4880a" stroke-width="1" stroke-opacity="0.4"/>
  <ellipse cx="70" cy="50" rx="30" ry="8" fill="#d4880a" fill-opacity="0.25"/>
</g>
<text x="120" y="260" font-family="Georgia, serif" font-size="108" font-weight="700" fill="#ffffff" letter-spacing="-4">Drunkards</text>
<text x="122" y="315" font-family="Georgia, serif" font-size="48" font-weight="400" fill="#d4880a" letter-spacing="2">.in</text>
<rect x="120" y="340" width="580" height="2" fill="#d4880a" fill-opacity="0.4"/>
<text x="122" y="400" font-family="Georgia, serif" font-size="28" font-weight="400" fill="#f5f0e8" fill-opacity="0.75" letter-spacing="1">India's Home Bar Authority</text>
<text x="122" y="460" font-family="Arial, sans-serif" font-size="18" font-weight="400" fill="#888888" letter-spacing="3">COCKTAILS · SPIRITS · GUIDES · TOOLS</text>
<rect x="120" y="500" width="140" height="36" rx="4" fill="#d4880a"/>
<text x="190" y="524" font-family="Arial, sans-serif" font-size="14" font-weight="700" fill="#0a0a0a" text-anchor="middle" letter-spacing="1">DRUNKARDS.IN</text>
</svg>